<?xml version="1.0" standalone="no"?>
<!DOCTYPE svg PUBLIC "-//W3C//DTD SVG 20010904//EN"
 "http://www.w3.org/TR/2001/REC-SVG-20010904/DTD/svg10.dtd">
<svg version="1.0" xmlns="http://www.w3.org/2000/svg"
 width="700pt" height="700pt" viewBox="0 0 700 700"
 preserveAspectRatio="xMidYMid meet">
<g transform="translate(0.000000,700.000000) scale(0.100000,-0.100000)"
fill="#7F7F52" stroke="none">
<path d="M3280 5833 c-25 -2 -106 -15 -180 -29 -688 -129 -1247 -597 -1485
-1239 -57 -154 -89 -293 -110 -485 -21 -182 -13 -450 20 -630 145 -806 731
-1443 1535 -1670 177 -50 320 -70 520 -70 203 0 344 20 530 74 647 189 1159
668 1394 1306 76 207 114 398 126 639 21 402 -82 797 -298 1144 -292 468 -762
812 -1297 949 -150 38 -256 54 -420 63 -77 4 -159 9 -182 10 -24 1 -67 0 -95
-2z m205 -168 c373 -35 724 -186 1007 -432 118 -102 293 -313 374 -452 123
-209 213 -471 243 -711 19 -147 19 -383 0 -530 -42 -330 -171 -633 -375 -882
-410 -501 -1051 -753 -1694 -665 -907 124 -1597 891 -1627 1813 -24 727 366
1392 1012 1723 285 146 672 205 1060 136z"/>
<path d="M3345 5118 c-3 -7 -4 -605 -3 -1328 l3 -1315 130 0 130 0 0 520 0
520 273 5 272 5 0 125 0 125 -272 5 -273 5 -3 673 -2 672 -125 0 c-95 0 -127
-3 -130 -12z"/>
<path d="M2040 2788 l0 -833 773 -3 772 -2 0 125 0 125 -642 2 -643 3 -2 708
-3 707 -127 0 -128 0 0 -832z"/>
</g>
</svg> 